<?xml version="1.0" standalone="no"?>
<!DOCTYPE svg PUBLIC "-//W3C//DTD SVG 20010904//EN"
 "http://www.w3.org/TR/2001/REC-SVG-20010904/DTD/svg10.dtd">
<svg version="1.0" xmlns="http://www.w3.org/2000/svg"
 width="900.000000pt" height="520.000000pt" viewBox="0 0 900.000000 520.000000"
 preserveAspectRatio="xMidYMid meet">

<g transform="translate(0.000000,520.000000) scale(0.100000,-0.100000)"
fill="#000000" stroke="none">
<path d="M4295 4548 c-204 -20 -463 -97 -654 -193 -523 -262 -903 -758 -1020
-1330 -118 -574 38 -1180 419 -1630 262 -308 611 -522 1015 -621 598 -146
1243 15 1717 430 426 372 671 951 644 1519 -53 1111 -1013 1937 -2121 1825z
m-296 -740 c50 -24 161 -124 191 -173 l21 -34 35 21 c60 36 141 49 324 55 201
6 334 -11 407 -52 24 -13 43 -20 43 -15 0 4 31 41 69 81 74 80 154 134 212
144 l36 7 18 -73 c22 -91 23 -198 1 -273 l-17 -57 36 -41 c72 -85 101 -179
115 -378 15 -204 -3 -319 -66 -440 -46 -88 -100 -148 -181 -204 -85 -58 -161
-89 -283 -117 l-95 -22 22 -46 c44 -89 53 -165 53 -468 l0 -283 -322 0 -323 0
0 157 c0 152 -1 158 -20 155 -11 -2 -67 -4 -125 -4 -82 -1 -118 4 -162 20
-111 40 -194 115 -249 224 -50 100 -137 226 -177 255 -78 57 -76 73 6 73 101
-1 174 -48 249 -162 90 -137 210 -199 360 -185 97 9 117 22 125 82 9 65 22
109 47 151 l20 33 -37 6 c-258 44 -442 164 -535 350 -53 107 -69 226 -56 423
13 196 43 297 115 380 l35 41 -16 56 c-27 92 -18 259 17 328 11 22 38 18 107
-15z"/>
</g>
</svg>
